<?xml version="1.0" standalone="no"?>
<!DOCTYPE svg PUBLIC "-//W3C//DTD SVG 20010904//EN"
 "http://www.w3.org/TR/2001/REC-SVG-20010904/DTD/svg10.dtd">
<svg version="1.0" xmlns="http://www.w3.org/2000/svg"
 width="260.000000pt" height="260.000000pt" viewBox="0 0 260.000000 260.000000"
 preserveAspectRatio="xMidYMid meet">
<metadata>
Created by potrace 1.14, written by Peter Selinger 2001-2017
</metadata>
<g transform="translate(0.000000,260.000000) scale(0.100000,-0.100000)"
fill="#000000" stroke="none">
<path d="M1150 2593 c-81 -13 -194 -38 -260 -60 -83 -27 -252 -106 -268 -126
-8 -9 10 -34 66 -93 43 -45 129 -136 192 -204 63 -68 133 -142 155 -165 22
-22 98 -103 169 -178 71 -75 132 -137 135 -137 4 0 55 47 115 105 103 101 157
138 237 164 59 19 81 22 143 21 197 -3 359 -115 412 -284 l16 -51 157 -58 c86
-31 159 -57 163 -57 8 0 4 28 -19 130 -19 86 -17 79 -27 105 -4 11 -13 34 -18
50 -27 77 -114 238 -168 310 -212 284 -505 463 -853 522 -39 6 -313 11 -347 6z"/>
<path d="M550 2361 c-159 -107 -329 -306 -417 -491 -95 -198 -127 -338 -128
-560 0 -152 9 -235 37 -335 6 -22 13 -48 15 -57 8 -45 80 -207 125 -281 207
-341 529 -557 932 -625 84 -14 348 -7 436 12 269 58 491 177 672 362 253 259
378 569 374 929 l-1 130 -30 -2 c-16 -1 -39 -7 -50 -13 -11 -5 -69 -28 -129
-51 -135 -50 -146 -55 -146 -77 0 -23 -53 -133 -92 -190 -64 -95 -230 -251
-367 -346 -171 -120 -412 -200 -701 -235 -74 -8 -496 -7 -535 2 -11 2 -51 8
-90 11 -63 7 -125 19 -164 32 -8 2 48 63 144 157 87 83 221 213 298 288 l141
136 -49 74 c-117 178 -194 359 -236 559 -28 134 -31 390 -5 514 8 44 14 81 12
83 -1 2 -22 -10 -46 -26z"/>
<path d="M1901 1616 c-77 -25 -100 -121 -43 -179 70 -69 194 -14 187 83 -5 73
-74 119 -144 96z"/>
</g>
</svg>
